<svg xmlns="http://www.w3.org/2000/svg" xmlns:xlink="http://www.w3.org/1999/xlink" version="1.1" x="0px" y="0px" viewBox="0 0 100 125" enable-background="new 0 0 100 100" xml:space="preserve"><path d="M18.527,87.938c-0.605,0-1.147-0.278-1.489-0.764c-0.61-0.867-0.323-1.961-0.054-2.708l5.386-17.108h-9.526  c-5.238,0-9.5-4.262-9.5-9.5V23.266c0-5.238,4.262-9.5,9.5-9.5h74.327c5.238,0,9.5,4.262,9.5,9.5v34.592c0,5.238-4.262,9.5-9.5,9.5  H42.858L20.623,86.94C19.85,87.62,19.184,87.938,18.527,87.938z M12.844,16.766c-3.584,0-6.5,2.916-6.5,6.5v34.592  c0,3.584,2.916,6.5,6.5,6.5H26.46l-5.858,18.604l21.123-18.604h45.446c3.584,0,6.5-2.916,6.5-6.5V23.266c0-3.584-2.916-6.5-6.5-6.5  H12.844z"/><text x="0" y="115" fill="#000000" font-size="5px" font-weight="bold" font-family="'Helvetica Neue', Helvetica, Arial-Unicode, Arial, Sans-serif">Created by Olyn LeRoy</text><text x="0" y="120" fill="#000000" font-size="5px" font-weight="bold" font-family="'Helvetica Neue', Helvetica, Arial-Unicode, Arial, Sans-serif">from the Noun Project</text></svg>